# xmcd
#
# Track frame offsets: 
#        150
#        10333
#        25872
#        45172
#        60471
#        76871
#        93045
#        109020
#        125646
#        139608
#        158446
#        173921
#        190258
#        206808
#        222658
#        238920
#
# Disc length: 3371 seconds
#
# Revision: 3
# Processed by: cddbd v1.5.2PL0 Copyright (c) Steve Scherf et al.
# Submitted via: ExactAudioCopyFreeDBPlugin 1.0
#
DISCID=cf0d2910
DTITLE=Kris Kristofferson - kris kristofferson, the greatest hits - CD
DTITLE=2 of 3 - SMM 513401-2
DYEAR=2003
DGENRE=Country
TTITLE0=Help Me Make It Through The Night, 1970
TTITLE1=Why Me, 1972
TTITLE2=The Silver-Tongued Devil And I, 1971
TTITLE3=For The Good Times, 1971
TTITLE4=Killing Time, 1976
TTITLE5=Casey's Last Ride, 1970
TTITLE6=Who's To Bless And Who's To Blame, 1975
TTITLE7=Magdalene, 1981
TTITLE8=Enough For You, 1972
TTITLE9=Fallen Angel, 1979
TTITLE10=Shake Hands With The Devil, s.a.
TTITLE11=Just The Other Side Of Nowhere, 1970
TTITLE12=Easter Island, 1978
TTITLE13=Late Again (Gettin' Over You), 1974
TTITLE14=Somebody Nobody Knows, 1972
TTITLE15=Stranger, 1975
EXTD=
EXTT0=
EXTT1=
EXTT2=
EXTT3=
EXTT4=
EXTT5=
EXTT6=
EXTT7=
EXTT8=
EXTT9=
EXTT10=
EXTT11=
EXTT12=
EXTT13=
EXTT14=
EXTT15=
PLAYORDER=
